<svg width="220" height="56" viewBox="0 0 220 56" fill="none" xmlns="http://www.w3.org/2000/svg">
<g clip-path="url(#clip0_8205_706)">
<path d="M56.2568 32.9355L211.894 32.9355L211.894 26.976L123.785 26.976L56.2568 26.976L56.2568 32.9355Z" fill="#604C50"/>
<path d="M27.6072 0.979492C15.8006 0.979492 6 13.1116 6 28.3492C6 34.7531 7.7331 40.6091 10.6166 45.2467C21.7102 49.1683 33.9459 49.6255 44.4473 45.483C47.4193 40.8087 49.2107 34.8627 49.2107 28.3492C49.2107 13.1117 39.4137 0.979721 27.6074 0.979492H27.6072ZM27.808 3.12838C37.0622 3.12838 44.5441 10.6068 44.5441 19.8611C44.5441 29.1154 37.0622 36.5972 27.808 36.5972C18.5534 36.5972 11.0753 29.1154 11.0753 19.8611C11.0753 10.6068 18.5534 3.12838 27.808 3.12838ZM27.8635 6.05798C23.0039 6.05798 19.0478 9.27273 19.0478 14.1108C19.0478 16.8496 19.9938 18.1324 21.0474 19.8036C21.75 20.9181 22.4738 22.1989 22.8797 24.0387H32.7887C33.1926 22.1549 33.9237 20.8503 34.6323 19.7248C35.6875 18.049 36.632 16.7892 36.632 14.111C36.632 9.26975 32.7231 6.05821 27.8633 6.05821L27.8635 6.05798ZM23.1795 26.2925V29.7729H32.5005V26.2923L23.1795 26.2925ZM24.4608 31.9056V33.9685H31.2192V31.9056H24.4608ZM17.8869 37.3171C19.9916 37.3171 21.6869 39.0179 21.6869 41.1564C21.6869 43.295 19.9915 44.9995 17.8869 44.9995C15.7822 44.9995 14.0905 43.295 14.0905 41.1564C14.0905 39.0179 15.7821 37.3171 17.8866 37.3171H17.8869ZM36.8306 37.3523C38.9233 37.3523 40.6195 39.0488 40.6195 41.1414C40.6195 43.2342 38.9233 44.9306 36.8306 44.9306C34.7379 44.9306 33.0417 43.2341 33.0417 41.1414C33.0417 39.0487 34.7379 37.3525 36.8306 37.3525V37.3523ZM12.941 48.4341C14.2609 49.9795 15.7328 51.3163 17.3213 52.4096L16.5081 49.3869C15.2841 49.117 14.0926 48.7996 12.941 48.4341ZM42.1194 48.6097C41.0834 48.9204 40.0356 49.1904 38.9784 49.4191L38.2407 52.1662C39.636 51.1631 40.937 49.9685 42.1195 48.61L42.1194 48.6097ZM18.8506 49.8418L19.95 53.9424C21.2497 54.5689 22.6071 55.0394 24.0078 55.3393L23.4276 50.3968C21.8792 50.2765 20.3483 50.0924 18.8506 49.8418ZM36.64 49.8665L36.6398 49.8667C35.4636 50.0593 34.2811 50.211 33.0944 50.3217L32.5425 54.9991C33.5894 54.6871 34.6066 54.2755 35.5906 53.7774L36.64 49.8665ZM30.9199 50.4792C29.0587 50.5741 27.3222 50.5878 25.5945 50.5222L26.2034 55.6619C26.6678 55.6999 27.1357 55.7224 27.6073 55.7224C28.5178 55.722 29.4267 55.649 30.3256 55.5042L30.9199 50.4792Z" fill="#5C6173"/>
<path d="M55.5048 52.5601V37.1601H59.8608V52.5601H55.5048ZM62.9599 52.5601V37.1601H70.2419C71.9433 37.1601 73.4393 37.4754 74.7299 38.1061C76.0206 38.7367 77.0253 39.6241 77.7439 40.7681C78.4773 41.9121 78.8439 43.2761 78.8439 44.8601C78.8439 46.4294 78.4773 47.7934 77.7439 48.9521C77.0253 50.0961 76.0206 50.9834 74.7299 51.6141C73.4393 52.2447 71.9433 52.5601 70.2419 52.5601H62.9599ZM67.3159 49.0841H70.0659C70.9459 49.0841 71.7086 48.9227 72.3539 48.6001C73.0139 48.2627 73.5273 47.7787 73.8939 47.1481C74.2606 46.5027 74.4439 45.7401 74.4439 44.8601C74.4439 43.9654 74.2606 43.2027 73.8939 42.5721C73.5273 41.9414 73.0139 41.4647 72.3539 41.1421C71.7086 40.8047 70.9459 40.6361 70.0659 40.6361H67.3159V49.0841ZM85.1397 43.1221H92.2897V46.3781H85.1397V43.1221ZM85.4477 49.1941H93.4997V52.5601H81.1357V37.1601H93.2137V40.5261H85.4477V49.1941ZM94.069 52.5601L100.867 37.1601H105.157L111.977 52.5601H107.445L102.121 39.2941H103.837L98.513 52.5601H94.069ZM97.787 49.5681L98.909 46.3561H106.433L107.555 49.5681H97.787ZM127.292 52.8681C126.075 52.8681 124.946 52.6774 123.904 52.2961C122.878 51.9001 121.983 51.3427 121.22 50.6241C120.472 49.9054 119.886 49.0621 119.46 48.0941C119.035 47.1114 118.822 46.0334 118.822 44.8601C118.822 43.6867 119.035 42.6161 119.46 41.6481C119.886 40.6654 120.472 39.8147 121.22 39.0961C121.983 38.3774 122.878 37.8274 123.904 37.4461C124.946 37.0501 126.075 36.8521 127.292 36.8521C128.715 36.8521 129.984 37.1014 131.098 37.6001C132.228 38.0987 133.166 38.8174 133.914 39.7561L131.142 42.2641C130.644 41.6774 130.094 41.2301 129.492 40.9221C128.906 40.6141 128.246 40.4601 127.512 40.4601C126.882 40.4601 126.302 40.5627 125.774 40.7681C125.246 40.9734 124.792 41.2741 124.41 41.6701C124.044 42.0514 123.75 42.5134 123.53 43.0561C123.325 43.5987 123.222 44.2001 123.222 44.8601C123.222 45.5201 123.325 46.1214 123.53 46.6641C123.75 47.2067 124.044 47.6761 124.41 48.0721C124.792 48.4534 125.246 48.7467 125.774 48.9521C126.302 49.1574 126.882 49.2601 127.512 49.2601C128.246 49.2601 128.906 49.1061 129.492 48.7981C130.094 48.4901 130.644 48.0427 131.142 47.4561L133.914 49.9641C133.166 50.8881 132.228 51.6067 131.098 52.1201C129.984 52.6187 128.715 52.8681 127.292 52.8681ZM139.86 43.1221H147.01V46.3781H139.86V43.1221ZM140.168 49.1941H148.22V52.5601H135.856V37.1601H147.934V40.5261H140.168V49.1941ZM150.638 52.5601V37.1601H154.224L162.716 47.4121H161.022V37.1601H165.29V52.5601H161.704L153.212 42.3081H154.906V52.5601H150.638ZM171.64 52.5601V40.6141H166.91V37.1601H180.704V40.6141H175.996V52.5601H171.64ZM186.331 43.1221H193.481V46.3781H186.331V43.1221ZM186.639 49.1941H194.691V52.5601H182.327V37.1601H194.405V40.5261H186.639V49.1941ZM197.108 52.5601V37.1601H204.148C205.556 37.1601 206.766 37.3874 207.778 37.8421C208.805 38.2967 209.597 38.9567 210.154 39.8221C210.712 40.6727 210.99 41.6847 210.99 42.8581C210.99 44.0167 210.712 45.0214 210.154 45.8721C209.597 46.7081 208.805 47.3534 207.778 47.8081C206.766 48.2481 205.556 48.4681 204.148 48.4681H199.528L201.464 46.6421V52.5601H197.108ZM206.634 52.5601L202.806 46.9501H207.448L211.298 52.5601H206.634ZM201.464 47.1041L199.528 45.1021H203.884C204.794 45.1021 205.468 44.9041 205.908 44.5081C206.363 44.1121 206.59 43.5621 206.59 42.8581C206.59 42.1394 206.363 41.5821 205.908 41.1861C205.468 40.7901 204.794 40.5921 203.884 40.5921H199.528L201.464 38.5901V47.1041Z" fill="#5C6173"/>
<path d="M55.7148 21.6362V4.13623H59.7898L67.0398 16.0362H64.8898L71.9398 4.13623H76.0148L76.0648 21.6362H71.5148L71.4648 11.0612H72.2398L66.9648 19.9112H64.7648L59.3398 11.0612H60.2898V21.6362H55.7148ZM83.9924 21.6362V14.2362L85.1424 17.2112L77.3174 4.13623H82.5424L88.1924 13.6112H85.1674L90.8424 4.13623H95.6424L87.8424 17.2112L88.9424 14.2362V21.6362H83.9924ZM104.177 21.6362V4.13623H109.127V21.6362H104.177ZM112.648 21.6362V4.13623H116.723L126.373 15.7862H124.448V4.13623H129.298V21.6362H125.223L115.573 9.98623H117.498V21.6362H112.648ZM132.79 21.6362V4.13623H136.865L146.515 15.7862H144.59V4.13623H149.44V21.6362H145.365L135.715 9.98623H137.64V21.6362H132.79ZM161.757 21.9862C160.357 21.9862 159.065 21.7612 157.882 21.3112C156.698 20.8612 155.665 20.2279 154.782 19.4112C153.915 18.5779 153.24 17.6112 152.757 16.5112C152.273 15.4112 152.032 14.2029 152.032 12.8862C152.032 11.5696 152.273 10.3612 152.757 9.26123C153.24 8.16123 153.915 7.2029 154.782 6.38623C155.665 5.5529 156.698 4.91123 157.882 4.46123C159.065 4.01123 160.357 3.78623 161.757 3.78623C163.173 3.78623 164.465 4.01123 165.632 4.46123C166.815 4.91123 167.84 5.5529 168.707 6.38623C169.573 7.2029 170.248 8.16123 170.732 9.26123C171.232 10.3612 171.482 11.5696 171.482 12.8862C171.482 14.2029 171.232 15.4196 170.732 16.5362C170.248 17.6362 169.573 18.5946 168.707 19.4112C167.84 20.2279 166.815 20.8612 165.632 21.3112C164.465 21.7612 163.173 21.9862 161.757 21.9862ZM161.757 17.8862C162.423 17.8862 163.04 17.7696 163.607 17.5362C164.19 17.3029 164.69 16.9696 165.107 16.5362C165.54 16.0862 165.873 15.5529 166.107 14.9362C166.357 14.3196 166.482 13.6362 166.482 12.8862C166.482 12.1196 166.357 11.4362 166.107 10.8362C165.873 10.2196 165.54 9.69456 165.107 9.26123C164.69 8.81123 164.19 8.46956 163.607 8.23623C163.04 8.0029 162.423 7.88623 161.757 7.88623C161.09 7.88623 160.465 8.0029 159.882 8.23623C159.315 8.46956 158.815 8.81123 158.382 9.26123C157.965 9.69456 157.632 10.2196 157.382 10.8362C157.148 11.4362 157.032 12.1196 157.032 12.8862C157.032 13.6362 157.148 14.3196 157.382 14.9362C157.632 15.5529 157.965 16.0862 158.382 16.5362C158.815 16.9696 159.315 17.3029 159.882 17.5362C160.465 17.7696 161.09 17.8862 161.757 17.8862ZM178.863 21.6362L171.388 4.13623H176.738L183.038 19.2862H179.888L186.338 4.13623H191.238L183.738 21.6362H178.863ZM189.552 21.6362L197.277 4.13623H202.152L209.902 21.6362H204.752L198.702 6.56123H200.652L194.602 21.6362H189.552ZM193.777 18.2362L195.052 14.5862H203.602L204.877 18.2362H193.777Z" fill="#5C6173"/>
</g>
<defs>
<clipPath id="clip0_8205_706">
<rect width="220" height="56" fill="white"/>
</clipPath>
</defs>
</svg>
